# Blender v2.79 (sub 0) OBJ File: 'untitled.blend'
# www.blender.org
o Cube.001
v 1.000000 -1.000000 -0.170000
v 1.000000 -1.000000 0.170000
v -1.000000 -1.000000 0.170000
v -1.000000 -1.000000 -0.170000
v 1.000000 1.000000 -0.170000
v 0.999999 1.000000 0.170000
v -1.000000 1.000000 0.170000
v -1.000000 1.000000 -0.170000
v -0.311787 0.527706 -0.170000
v -0.311787 0.527706 0.170000
v 0.311787 0.379381 -0.170000
v 0.311787 -0.095868 -0.170000
v 0.311787 0.052458 0.170000
v 0.311787 -0.095868 0.170000
v 0.311787 0.527706 -0.170000
v 0.311787 0.527706 0.170000
v -0.311787 -0.095868 -0.170000
v -0.311787 -0.095868 0.170000
vt 0.830000 0.060000
vt 0.170000 0.940000
vt 0.830000 0.940000
vt 0.170000 0.940000
vt 0.830000 0.060000
vt 0.830000 0.940000
vt 0.170000 0.060000
vt 0.830000 0.060000
vt 0.397110 0.457818
vt 0.170000 0.060000
vt 0.830000 0.940000
vt 0.830000 0.060000
vt 0.602890 0.732191
vt 0.170000 0.732191
vt 0.830000 0.732191
vt 0.830000 0.666928
vt 0.602890 0.060000
vt 0.397110 0.940000
vt 0.602890 0.940000
vt 0.602890 0.457818
vt 0.170000 0.060000
vt 0.397110 0.060000
vt 0.602890 0.940000
vt 0.397110 0.940000
vt 0.397110 0.732191
vt 0.602890 0.732191
vt 0.830000 0.940000
vt 0.830000 0.457818
vt 0.170000 0.732191
vt 0.170000 0.457818
vt 0.170000 0.060000
vt 0.170000 0.940000
vt 0.602890 0.523081
vt 0.602890 0.457818
vt 0.170000 0.940000
vt 0.602890 0.666928
vt 0.397110 0.732191
vt 0.830000 0.457818
vt 0.170000 0.523081
vt 0.170000 0.457818
vt 0.397110 0.060000
vt 0.397110 0.457818
vt 0.602890 0.060000
vt 0.830000 0.732191
vn 0.0000 -1.0000 0.0000
vn 0.0000 1.0000 0.0000
vn 1.0000 -0.0000 0.0000
vn 0.0000 -0.0000 1.0000
vn -1.0000 -0.0000 -0.0000
vn 0.0000 0.0000 -1.0000
s off
f 2/1/1 4/2/1 1/3/1
f 8/4/2 6/5/2 5/6/2
f 5/6/3 2/7/3 1/8/3
f 2/1/4 18/9/4 3/10/4
f 3/10/5 8/11/5 4/12/5
f 5/6/6 15/13/6 8/4/6
f 16/14/5 15/15/5 11/16/5
f 16/17/1 9/18/1 15/19/1
f 12/20/6 1/8/6 4/21/6
f 18/22/2 12/23/2 17/24/2
f 10/25/4 16/26/4 6/27/4
f 17/28/3 10/29/3 18/30/3
f 2/1/1 3/10/1 4/2/1
f 8/4/2 7/31/2 6/5/2
f 5/6/3 6/32/3 2/7/3
f 2/1/4 6/27/4 13/33/4
f 2/1/4 13/33/4 14/34/4
f 10/25/4 7/35/4 18/9/4
f 7/35/4 3/10/4 18/9/4
f 2/1/4 14/34/4 18/9/4
f 3/10/5 7/35/5 8/11/5
f 5/6/6 11/36/6 15/13/6
f 15/13/6 9/37/6 8/4/6
f 11/16/5 12/38/5 13/39/5
f 12/38/5 14/40/5 13/39/5
f 13/39/5 16/14/5 11/16/5
f 16/17/1 10/41/1 9/18/1
f 4/21/6 8/4/6 17/42/6
f 8/4/6 9/37/6 17/42/6
f 11/36/6 5/6/6 12/20/6
f 5/6/6 1/8/6 12/20/6
f 4/21/6 17/42/6 12/20/6
f 18/22/2 14/43/2 12/23/2
f 6/27/4 7/35/4 10/25/4
f 16/26/4 13/33/4 6/27/4
f 17/28/3 9/44/3 10/29/3
