# Blender v2.79 (sub 0) OBJ File: ''
# www.blender.org
v -6.390000 -3.150000 0.390000
v -6.390000 3.150000 -0.390000
v -6.390000 -3.150000 -0.390000
v -6.390000 3.150000 0.390000
v 6.390000 3.150000 -0.390000
v 6.390000 3.150000 0.390000
v 6.390000 -3.150000 -0.390000
v 6.390000 -3.150000 0.390000
v 1.000000 -0.328273 -0.390000
v 1.000000 1.671727 -0.390000
v 1.000000 -0.328273 0.390000
v 1.000000 1.671727 0.390000
v -1.000000 1.671727 -0.390000
v -1.000000 1.671727 0.390000
v -1.000000 -0.328273 -0.390000
v -1.000000 -0.328273 0.390000
vt 0.695000 0.075000
vt 0.305000 -3.075000
vt 0.305000 0.075000
vt 0.305000 0.695000
vt 6.695000 0.305000
vt 0.305000 0.305000
vt 0.695000 0.925000
vt 0.305000 4.075000
vt 0.305000 0.925000
vt 0.695000 0.695000
vt -5.695000 0.305000
vt 0.695000 0.305000
vt 0.695000 0.925000
vt -2.000000 2.664136
vt -2.000000 1.664137
vt 0.000000 0.664137
vt -3.695000 2.075000
vt 2.695000 2.075000
vt 0.695000 0.664137
vt 0.305000 -0.335863
vt 0.305000 0.664137
vt 0.000000 0.695000
vt -1.000000 0.305000
vt 0.000000 0.305000
vt 0.000000 0.664137
vt 3.695000 -0.075000
vt -2.695000 -0.075000
vt 0.695000 0.664137
vt 0.305000 1.664137
vt 0.305000 0.664137
vt 0.000000 0.695000
vt 1.000000 0.305000
vt 0.000000 0.305000
vt 0.000000 0.664137
vt 3.695000 2.075000
vt -2.695000 2.075000
vt 0.695000 -3.075000
vt 6.695000 0.695000
vt 0.695000 4.075000
vt -5.695000 0.695000
vt 0.000000 0.664137
vt -2.695000 -0.075000
vt 1.000000 0.664137
vt 0.305000 0.925000
vt 6.695000 0.925000
vt 4.000000 1.664137
vt 0.695000 4.075000
vt 0.695000 0.075000
vt 0.695000 -3.075000
vt -2.000000 -1.335863
vt -2.000000 1.664137
vt -2.000000 2.664136
vt -1.000000 0.664137
vt 0.695000 -0.335863
vt -1.000000 0.695000
vt 0.305000 0.925000
vt 0.305000 4.075000
vt 3.000000 2.664136
vt 1.000000 0.664137
vt 3.000000 1.664137
vt 0.695000 1.664137
vt 1.000000 0.695000
vt 3.000000 1.664137
vt 3.000000 2.664136
vt 1.000000 0.664137
vt 3.000000 -1.335863
vn -1.0000 -0.0000 0.0000
vn 0.0000 1.0000 0.0000
vn 1.0000 0.0000 0.0000
vn 0.0000 -1.0000 0.0000
vn -0.0000 0.0000 -1.0000
vn 0.0000 -0.0000 1.0000
s 1
f 1/1/1 2/2/1 3/3/1
f 4/4/2 5/5/2 2/6/2
f 6/7/3 7/8/3 5/9/3
f 8/10/4 3/11/4 7/12/4
f 5/13/5 9/14/5 10/15/5
f 11/16/6 1/17/6 8/18/6
f 11/19/1 10/20/1 9/21/1
f 12/22/4 13/23/4 10/24/4
f 14/25/6 6/26/6 4/27/6
f 14/28/3 15/29/3 13/30/3
f 16/31/2 9/32/2 15/33/2
f 15/34/5 7/35/5 3/36/5
f 1/1/1 4/37/1 2/2/1
f 4/4/2 6/38/2 5/5/2
f 6/7/3 8/39/3 7/8/3
f 8/10/4 1/40/4 3/11/4
f 13/41/5 2/42/5 10/43/5
f 2/44/5 5/45/5 10/46/5
f 5/13/5 7/47/5 9/14/5
f 8/48/6 6/49/6 11/50/6
f 6/7/6 12/51/6 11/52/6
f 11/16/6 16/53/6 1/17/6
f 11/19/1 12/54/1 10/20/1
f 12/22/4 14/55/4 13/23/4
f 4/56/6 1/57/6 16/58/6
f 14/25/6 12/59/6 6/26/6
f 4/56/6 16/58/6 14/60/6
f 14/28/3 16/61/3 15/29/3
f 16/31/2 11/62/2 9/32/2
f 2/44/5 13/63/5 15/64/5
f 15/34/5 9/65/5 7/35/5
f 3/3/5 2/2/5 15/66/5
